<svg width="338" height="281" viewBox="0 0 338 281" fill="none" xmlns="http://www.w3.org/2000/svg">
<path opacity="0.8" d="M313.501 119.878C300.963 104.496 283.685 93.8215 264.437 89.5666C260.208 69.8728 252.425 52.748 241.428 38.7057C241.131 38.2188 240.791 37.7604 240.413 37.3355C203.361 -8.04572 142.624 -7.87449 101.681 15.5866C66.6589 35.7946 36.8826 78.4355 52.4473 139.571C16.5802 148.477 0 180.158 0 208.757C0 240.781 20.6407 276.914 66.8282 280.168H241.766C265.791 280.168 288.631 271.263 306.226 254.823C348.861 217.148 343.278 155.327 313.501 119.878Z" fill="url(#paint0_linear_2975_88)"/>
<rect x="113" y="120" width="46" height="90" rx="23" fill="#D9D9D9"/>
<rect x="193" y="120" width="46" height="90" rx="23" fill="#D9D9D9"/>
<defs>
<linearGradient id="paint0_linear_2975_88" x1="168.511" y1="-1.02182e-05" x2="168.511" y2="280.168" gradientUnits="userSpaceOnUse">
<stop stop-color="#307AF0"/>
<stop offset="1" stop-color="#0FCBE3"/>
</linearGradient>
</defs>
</svg>
